<svg width="500" height="500" viewBox="0 0 500 500" fill="none" xmlns="http://www.w3.org/2000/svg">
<g clip-path="url(#clip0_6_6)">
<path d="M249.594 282.724L133.638 398.68C129.299 403.018 123.778 405.188 117.073 405.188C110.368 405.188 104.846 403.018 100.508 398.68C96.1692 394.341 94 388.82 94 382.115C94 375.41 96.1692 369.888 100.508 365.55L216.464 249.594L100.508 133.638C96.1692 129.299 94 123.778 94 117.073C94 110.368 96.1692 104.846 100.508 100.508C104.846 96.1692 110.368 94 117.073 94C123.778 94 129.299 96.1692 133.638 100.508L249.594 216.464L365.55 100.508C369.888 96.1692 375.41 94 382.115 94C388.82 94 394.341 96.1692 398.68 100.508C403.018 104.846 405.188 110.368 405.188 117.073C405.188 123.778 403.018 129.299 398.68 133.638L282.724 249.594L398.68 365.55C403.018 369.888 405.188 375.41 405.188 382.115C405.188 388.82 403.018 394.341 398.68 398.68C394.341 403.018 388.82 405.188 382.115 405.188C375.41 405.188 369.888 403.018 365.55 398.68L249.594 282.724Z" fill="white"/>
</g>
<defs>
<clipPath id="clip0_6_6">
<rect width="312" height="312" fill="white" transform="translate(94 94)"/>
</clipPath>
</defs>
</svg>
