<svg width="500" height="500" viewBox="0 0 500 500" xmlns="http://www.w3.org/2000/svg">
<path d="M208.184 209.299C184.698 209.299 164.592 200.937 147.867 184.213C131.142 167.489 122.78 147.385 122.78 123.9C122.78 100.415 131.142 80.3103 147.867 63.5862C164.592 46.8621 184.698 38.5 208.184 38.5C231.671 38.5 251.776 46.8621 268.502 63.5862C285.227 80.3103 293.589 100.415 293.589 123.9C293.589 147.385 285.227 167.489 268.502 184.213C251.776 200.937 231.671 209.299 208.184 209.299ZM430.237 439.879L376.859 386.504C369.386 390.774 361.379 394.332 352.839 397.179C344.298 400.026 335.224 401.449 325.616 401.449C298.927 401.449 276.238 392.112 257.548 373.438C238.873 354.749 229.536 332.062 229.536 305.374C229.536 278.687 238.873 255.999 257.548 237.311C276.238 218.637 298.927 209.299 325.616 209.299C352.305 209.299 374.994 218.637 393.684 237.311C412.359 255.999 421.696 278.687 421.696 305.374C421.696 314.982 420.273 324.055 417.426 332.595C414.579 341.135 411.021 349.142 406.75 356.614L460.128 409.989C464.043 413.903 466 418.885 466 424.934C466 430.983 464.043 435.965 460.128 439.879C456.214 443.793 451.232 445.75 445.183 445.75C439.133 445.75 434.151 443.793 430.237 439.879ZM325.616 358.749C340.562 358.749 353.195 353.589 363.514 343.27C373.834 332.951 378.994 320.319 378.994 305.374C378.994 290.429 373.834 277.797 363.514 267.478C353.195 257.159 340.562 251.999 325.616 251.999C310.67 251.999 298.037 257.159 287.718 267.478C277.398 277.797 272.238 290.429 272.238 305.374C272.238 320.319 277.398 332.951 287.718 343.27C298.037 353.589 310.67 358.749 325.616 358.749ZM80.0774 380.099C68.3342 380.099 58.2778 375.921 49.9081 367.567C41.5527 359.197 37.375 349.142 37.375 337.399V320.853C37.375 308.755 40.3997 297.546 46.4493 287.227C52.4988 276.908 60.8613 269.079 71.5369 263.742C89.6854 254.49 110.147 246.662 132.922 240.257C155.696 233.852 180.962 230.649 208.718 230.649C201.601 241.68 196.171 253.508 192.427 266.133C188.698 278.772 186.833 291.853 186.833 305.374C186.833 318.54 188.698 331.435 192.427 344.06C196.171 356.699 201.601 368.712 208.718 380.099H80.0774Z" />
</svg>
